<?xml version="1.0" encoding="utf-8"?>
<svg xmlns="http://www.w3.org/2000/svg" fill="none" height="61" viewBox="0 0 60 61" width="60">
<g id="icon-cart">
<path clip-rule="evenodd" d="M17.2177 50.001L8.99912 7.73397H4.4225C3.41512 7.73397 2.59848 6.91732 2.59848 5.90995C2.59848 4.90257 3.41512 4.08593 4.4225 4.08593H10.4603C10.682 4.08052 10.8982 4.11585 11.1002 4.18608C11.5808 4.35322 11.981 4.71803 12.1841 5.20192C12.2361 5.32524 12.2749 5.45548 12.2988 5.59087L14.0159 14.4218H54.9687C56.5007 14.4218 57.6511 15.8212 57.3548 17.3242L52.7993 40.4285C52.5746 41.5683 51.575 42.39 50.4133 42.39H19.4542L20.5182 47.8621H50.631C51.6383 47.8621 52.455 48.6787 52.455 49.6861C52.455 50.3452 52.1054 50.9227 51.5815 51.2432C51.7532 51.705 51.847 52.2046 51.847 52.7261C51.847 55.0767 49.9415 56.9822 47.5909 56.9822C45.2404 56.9822 43.3349 55.0767 43.3349 52.7261C43.3349 52.3036 43.3965 51.8954 43.5111 51.5101H26.1345C26.2491 51.8954 26.3107 52.3036 26.3107 52.7261C26.3107 55.0767 24.4052 56.9822 22.0547 56.9822C19.7041 56.9822 17.7986 55.0767 17.7986 52.7261C17.7986 52.2046 17.8924 51.705 18.0641 51.2432C18.0017 51.205 17.9418 51.1632 17.8846 51.118C17.6634 50.9436 17.4816 50.7176 17.3595 50.4537C17.2936 50.3117 17.2454 50.1599 17.2177 50.001ZM19.016 38.742L14.9401 18.0698H53.4895L49.4136 38.742H19.016ZM23.7571 52.7261C23.7571 53.6664 22.9949 54.4286 22.0547 54.4286C21.1145 54.4286 20.3523 53.6664 20.3523 52.7261C20.3523 52.2498 20.5479 51.8191 20.8632 51.5101H23.2461C23.5614 51.8191 23.7571 52.2498 23.7571 52.7261ZM46.3995 51.5101C46.0842 51.8191 45.8885 52.2498 45.8885 52.7261C45.8885 53.6664 46.6507 54.4286 47.5909 54.4286C48.5312 54.4286 49.2934 53.6664 49.2934 52.7261C49.2934 52.2498 49.0977 51.8191 48.7824 51.5101H46.3995Z" fill="#0D0D0D" fill-rule="evenodd" id="Union"/>
</g>
</svg>