<?xml version="1.0" encoding="utf-8"?>
<svg xmlns="http://www.w3.org/2000/svg" fill="none" height="61" viewBox="0 0 60 61" width="60">
<g id="icon-reward points">
<g id="Vector">
<path clip-rule="evenodd" d="M32.5232 5.31988L34.6161 7.10346C36.086 8.35607 37.9136 9.11307 39.8386 9.26669L42.5798 9.48543C43.68 9.57323 44.6692 10.046 45.4133 10.7694C45.4439 10.7994 45.4743 10.8297 45.5042 10.8603C46.228 11.6045 46.701 12.594 46.7888 13.6945L47.0076 16.4356C47.1612 18.3607 47.9182 20.1882 49.1708 21.6581L50.9544 23.751C52.4159 25.4661 52.4159 27.9885 50.9544 29.7036L49.1708 31.7965C47.9182 33.2664 47.1612 35.0939 47.0076 37.019L46.7888 39.7601C46.6096 42.0063 44.8259 43.7899 42.5798 43.9692L39.8386 44.1879C37.9136 44.3415 36.086 45.0985 34.6161 46.3511L32.5232 48.1347C30.8082 49.5963 28.2857 49.5963 26.5707 48.1347L24.4778 46.3511C23.0079 45.0985 21.1803 44.3415 19.2553 44.1879L16.5142 43.9692C14.268 43.7899 12.4843 42.0063 12.3051 39.7601L12.0863 37.019C11.9327 35.0939 11.1757 33.2664 9.92311 31.7965L8.13953 29.7036C7.41518 28.8536 7.04982 27.8053 7.04346 26.7552C7.04337 26.7362 7.04337 26.7172 7.04347 26.6983C7.05008 25.6486 7.41544 24.6007 8.13953 23.751L9.92311 21.6581C11.1757 20.1882 11.9327 18.3607 12.0863 16.4356L12.3051 13.6945C12.3927 12.5967 12.8636 11.6093 13.5844 10.8658C13.6178 10.8315 13.6517 10.7977 13.686 10.7642C14.4294 10.0437 15.4166 9.57302 16.5142 9.48543L19.2553 9.26669C21.1803 9.11307 23.0079 8.35607 24.4778 7.10346L26.5707 5.31988C27.4065 4.60759 28.4341 4.24243 29.4666 4.22443C29.5201 4.22368 29.5736 4.22368 29.6271 4.22442C30.6597 4.2424 31.6873 4.60755 32.5232 5.31988ZM4.74919 26.6854C4.74903 26.7128 4.74902 26.7402 4.74918 26.7675C4.75833 28.6081 5.39773 30.4461 6.66735 31.9359L8.15165 33.6776C8.93453 34.5963 9.40765 35.7385 9.50366 36.9417L9.5582 37.6251L0.974939 49.2884C0.721218 49.6332 0.680562 50.0906 0.86949 50.4747C1.05842 50.8588 1.4455 51.1058 1.87346 51.1153L8.62695 51.2649C8.76628 51.268 8.88577 51.3113 8.97874 51.3797C9.07172 51.4482 9.14856 51.5491 9.19291 51.6812L11.3442 58.0849C11.4805 58.4907 11.8314 58.7868 12.2543 58.853C12.6773 58.9192 13.1018 58.7443 13.3556 58.3996L21.4705 47.3727C21.8719 47.5762 22.2502 47.8274 22.5968 48.1228L24.3385 49.6071C27.3398 52.1648 31.7541 52.1648 34.7554 49.6071L36.4972 48.1228C36.9542 47.7332 37.4667 47.4204 38.0144 47.1925L46.1495 58.3924C46.4011 58.7387 46.8245 58.9162 47.2478 58.8527C47.6712 58.7892 48.0239 58.4953 48.1628 58.0904L50.3542 51.701C50.3994 51.5691 50.477 51.4684 50.5704 51.4005C50.6638 51.3327 50.7833 51.2901 50.9227 51.2878L57.6769 51.1797C58.1049 51.1729 58.4934 50.9283 58.6847 50.5454C58.876 50.1625 58.8382 49.7049 58.5867 49.3586L49.588 36.9698L49.5903 36.9417C49.6863 35.7385 50.1594 34.5963 50.9423 33.6776L52.4266 31.9359C54.9843 28.9346 54.9843 24.5203 52.4266 21.519L50.9423 19.7773C50.1594 18.8586 49.6863 17.7164 49.5903 16.5132L49.4082 14.2321C49.2539 12.2984 48.4202 10.5607 47.145 9.25664C47.1022 9.21275 47.0589 9.16943 47.015 9.12669C45.7112 7.85299 43.9746 7.02036 42.0424 6.86617L39.7612 6.68414C38.5581 6.58812 37.4158 6.115 36.4972 5.33212L34.7554 3.84783C33.2861 2.5957 31.4782 1.95655 29.6632 1.93039C29.5856 1.92909 29.5081 1.92909 29.4305 1.93039C27.6156 1.95661 25.8077 2.59576 24.3385 3.84782L22.5968 5.33212C21.6781 6.115 20.5359 6.58812 19.3327 6.68414L17.0516 6.86617C15.1231 7.02007 13.3894 7.84979 12.0865 9.11936C12.0368 9.16753 11.9879 9.21645 11.9397 9.26609C10.6697 10.5691 9.83963 12.3031 9.6857 14.232L9.50366 16.5132C9.40765 17.7164 8.93453 18.8586 8.15165 19.7772L6.66736 21.519C5.39818 23.0083 4.75879 24.8455 4.74919 26.6854ZM49.057 40.1427C48.7003 43.4173 46.0645 45.9927 42.7623 46.2562L40.312 46.4517L46.7086 55.2582L48.1839 50.9569C48.3776 50.3918 48.7356 49.8976 49.222 49.5442C49.7085 49.1909 50.289 49.0033 50.8862 48.9938L55.4332 48.9211L49.057 40.1427ZM19.2689 46.4934L12.8161 55.2618L11.3679 50.9511C11.1778 50.3847 10.823 49.8883 10.3386 49.5319C9.85432 49.1755 9.27499 48.9843 8.67778 48.9712L4.1312 48.8704L10.1255 40.725C10.7127 43.7184 13.2278 46.0085 16.3317 46.2562L19.0728 46.475C19.1383 46.4802 19.2037 46.4863 19.2689 46.4934Z" fill="#0D0D0D" fill-rule="evenodd"/>
<path clip-rule="evenodd" d="M29.5469 19.1027L28.4791 22.389C28.0952 23.5707 26.9941 24.3707 25.7516 24.3707H22.2962L25.0917 26.4017C26.0968 27.132 26.5174 28.4265 26.1335 29.6082L25.0657 32.8945L27.8612 30.8634C28.8664 30.1331 30.2275 30.1331 31.2326 30.8634L34.0281 32.8945L32.9603 29.6082C32.5764 28.4265 32.997 27.132 34.0022 26.4017L36.7977 24.3707H33.3422C32.0998 24.3707 30.9987 23.5707 30.6147 22.389L29.5469 19.1027ZM30.6379 16.8921C30.2945 15.8352 28.7993 15.8352 28.4559 16.8921L26.8426 21.8573C26.689 22.33 26.2486 22.65 25.7516 22.65H20.5309C19.4196 22.65 18.9576 24.072 19.8566 24.7252L24.0803 27.7939C24.4823 28.086 24.6506 28.6038 24.497 29.0764L22.8837 34.0416C22.5403 35.0985 23.7499 35.9774 24.649 35.3242L28.8726 32.2555C29.2747 31.9634 29.8191 31.9634 30.2212 32.2555L34.4449 35.3242C35.3439 35.9774 36.5536 35.0985 36.2102 34.0416L34.5969 29.0764C34.4433 28.6038 34.6115 28.086 35.0136 27.7939L39.2373 24.7252C40.1363 24.072 39.6742 22.65 38.563 22.65H33.3422C32.8453 22.65 32.4048 22.33 32.2512 21.8573L30.6379 16.8921Z" fill="#0D0D0D" fill-rule="evenodd"/>
<path clip-rule="evenodd" d="M29.547 39.9193C36.8329 39.9193 42.7393 34.0129 42.7393 26.727C42.7393 19.4411 36.8329 13.5347 29.547 13.5347C22.261 13.5347 16.3547 19.4411 16.3547 26.727C16.3547 34.0129 22.261 39.9193 29.547 39.9193ZM29.547 42.2136C38.1 42.2136 45.0336 35.28 45.0336 26.727C45.0336 18.174 38.1 11.2404 29.547 11.2404C20.9939 11.2404 14.0603 18.174 14.0603 26.727C14.0603 35.28 20.9939 42.2136 29.547 42.2136Z" fill="#0D0D0D" fill-rule="evenodd"/>
</g>
</g>
</svg>